<svg width="392" height="35" viewBox="0 0 392 35" fill="none" xmlns="http://www.w3.org/2000/svg">
<path d="M-0.00999977 34V1.57H21.932V6.722H5.924V15.186H19.632V20.338H5.924V28.848H21.932V34H-0.00999977ZM26.5388 34V1.57H48.4808V6.722H32.4728V15.186H46.1808V20.338H32.4728V28.848H48.4808V34H26.5388ZM53.0877 34V1.57H75.4897V6.722H59.0217V17.486L73.9717 16.566V21.81L59.0217 22.73V34H53.0877ZM100.322 6.722H93.0085V28.848H100.322V34H79.7605V28.848H87.0745V6.722H79.7605V1.57H100.322V6.722ZM145.928 1.57V6.722H135.118V34H129.184V6.722H118.282V1.57H145.928ZM145.374 31.24C143.012 29.0933 141.832 26.1647 141.832 22.454C141.832 18.7433 143.012 15.8147 145.374 13.668C147.735 11.5213 150.786 10.448 154.528 10.448C158.238 10.448 161.274 11.5213 163.636 13.668C165.997 15.8147 167.178 18.7433 167.178 22.454C167.178 26.1647 165.997 29.0933 163.636 31.24C161.274 33.3867 158.238 34.46 154.528 34.46C150.786 34.46 147.735 33.3867 145.374 31.24ZM149.56 17.44C148.364 18.6667 147.766 20.338 147.766 22.454C147.766 24.57 148.364 26.2413 149.56 27.468C150.756 28.6947 152.412 29.308 154.528 29.308C156.644 29.308 158.3 28.6947 159.496 27.468C160.692 26.2413 161.29 24.57 161.29 22.454C161.29 20.338 160.692 18.6667 159.496 17.44C158.3 16.2133 156.644 15.6 154.528 15.6C152.412 15.6 150.756 16.2133 149.56 17.44ZM188.442 34L181.91 24.386L176.942 26.87V34H171.008V0.189999H176.942V20.752L187.982 15.232L187.752 10.908H193.64L193.824 15.646C193.854 17.5167 193.026 18.866 191.34 19.694L186.924 21.902L195.204 34H188.442ZM196.591 22.178C196.591 18.5593 197.68 15.7073 199.857 13.622C202.035 11.506 204.871 10.448 208.367 10.448C211.863 10.448 214.669 11.46 216.785 13.484C218.932 15.508 220.005 18.2527 220.005 21.718V23.65H202.203C202.265 25.4593 202.847 26.916 203.951 28.02C205.086 29.0933 206.788 29.63 209.057 29.63C212.339 29.63 214.286 28.388 214.899 25.904H220.833C220.435 28.02 219.239 29.9827 217.245 31.792C215.252 33.5707 212.523 34.46 209.057 34.46C204.979 34.46 201.881 33.2947 199.765 30.964C197.649 28.6333 196.591 25.7047 196.591 22.178ZM202.203 20.062H214.393C214.393 18.682 213.887 17.5473 212.875 16.658C211.894 15.7687 210.391 15.324 208.367 15.324C206.343 15.324 204.81 15.784 203.767 16.704C202.725 17.5933 202.203 18.7127 202.203 20.062ZM238.026 15.6C235.757 15.6 233.978 16.3667 232.69 17.9C231.402 19.4027 230.758 21.7027 230.758 24.8V34H224.824V10.908H230.758V14.174L229.7 17.716H231.218C231.709 15.5387 232.69 13.7907 234.162 12.472C235.665 11.1227 237.612 10.448 240.004 10.448C242.856 10.448 245.079 11.3527 246.674 13.162C248.299 14.9407 249.112 17.5167 249.112 20.89V34H243.224V21.764C243.224 19.556 242.81 17.9767 241.982 17.026C241.185 16.0753 239.866 15.6 238.026 15.6ZM256.421 31.24C254.059 29.0933 252.879 26.1647 252.879 22.454C252.879 18.7433 254.059 15.8147 256.421 13.668C258.782 11.5213 261.833 10.448 265.575 10.448C269.285 10.448 272.321 11.5213 274.683 13.668C277.044 15.8147 278.225 18.7433 278.225 22.454C278.225 26.1647 277.044 29.0933 274.683 31.24C272.321 33.3867 269.285 34.46 265.575 34.46C261.833 34.46 258.782 33.3867 256.421 31.24ZM260.607 17.44C259.411 18.6667 258.813 20.338 258.813 22.454C258.813 24.57 259.411 26.2413 260.607 27.468C261.803 28.6947 263.459 29.308 265.575 29.308C267.691 29.308 269.347 28.6947 270.543 27.468C271.739 26.2413 272.337 24.57 272.337 22.454C272.337 20.338 271.739 18.6667 270.543 17.44C269.347 16.2133 267.691 15.6 265.575 15.6C263.459 15.6 261.803 16.2133 260.607 17.44ZM312.18 10.448C314.756 10.448 316.642 11.414 317.838 13.346C319.034 15.278 319.632 17.8233 319.632 20.982V34H313.698V21.626C313.698 19.3567 313.422 17.7927 312.87 16.934C312.318 16.0447 311.275 15.6 309.742 15.6C305.847 15.6 303.9 18.7587 303.9 25.076V34H297.966V21.626C297.966 19.3567 297.69 17.7927 297.138 16.934C296.586 16.0447 295.543 15.6 294.01 15.6C290.115 15.6 288.168 18.7587 288.168 25.076V34H282.234V10.908H288.168V13.898L287.11 17.394H288.628C289.671 12.7633 292.277 10.448 296.448 10.448C300.281 10.448 302.566 12.7633 303.302 17.394H304.406C305.449 12.7633 308.04 10.448 312.18 10.448ZM334.774 7.182C334.069 7.79533 333.118 8.102 331.922 8.102C330.726 8.102 329.776 7.79533 329.07 7.182C328.365 6.538 328.012 5.67933 328.012 4.606C328.012 3.53267 328.365 2.68933 329.07 2.076C329.776 1.432 330.726 1.11 331.922 1.11C333.088 1.11 334.038 1.432 334.774 2.076C335.51 2.72 335.878 3.56333 335.878 4.606C335.878 5.67933 335.51 6.538 334.774 7.182ZM323.136 34V28.848H329.668V15.738L324.378 16.06V10.908L331.738 10.448C332.904 10.3867 333.793 10.6627 334.406 11.276C335.02 11.8893 335.326 12.7633 335.326 13.898V28.848H341.858V34H323.136ZM343.666 22.454C343.666 18.8353 344.785 15.9373 347.024 13.76C349.262 11.552 352.237 10.448 355.948 10.448C359.014 10.448 361.682 11.2913 363.952 12.978C366.252 14.634 367.509 17.026 367.724 20.154H361.79C361.575 18.682 360.946 17.5627 359.904 16.796C358.861 15.9987 357.542 15.6 355.948 15.6C353.893 15.6 352.314 16.2287 351.21 17.486C350.136 18.7127 349.6 20.3687 349.6 22.454C349.6 24.5393 350.136 26.2107 351.21 27.468C352.314 28.6947 353.893 29.308 355.948 29.308C357.542 29.308 358.861 28.9247 359.904 28.158C360.946 27.3607 361.575 26.226 361.79 24.754H367.724C367.509 27.882 366.252 30.2893 363.952 31.976C361.682 33.632 359.014 34.46 355.948 34.46C352.237 34.46 349.262 33.3713 347.024 31.194C344.785 29.0167 343.666 26.1033 343.666 22.454ZM391.959 27.79C391.959 32.2367 388.601 34.46 381.885 34.46C377.959 34.46 375.046 33.6933 373.145 32.16C371.274 30.596 370.339 28.4033 370.339 25.582H376.273C376.273 28.4647 378.189 29.906 382.023 29.906C384.691 29.906 386.025 29.17 386.025 27.698C386.025 26.9313 385.687 26.3487 385.013 25.95C384.338 25.5513 383.127 25.076 381.379 24.524C380.919 24.4013 380.566 24.294 380.321 24.202C377.285 23.19 375.291 22.3927 374.341 21.81C372.409 20.5833 371.427 18.912 371.397 16.796C371.397 14.8027 372.225 13.254 373.881 12.15C375.537 11.0153 377.852 10.448 380.827 10.448C384.353 10.448 386.96 11.23 388.647 12.794C390.333 14.3273 391.177 16.2593 391.177 18.59H385.243C385.243 16.198 383.755 15.002 380.781 15.002C378.481 15.002 377.331 15.646 377.331 16.934C377.331 17.6393 377.745 18.2067 378.573 18.636C379.401 19.0653 380.888 19.6327 383.035 20.338C386.101 21.35 388.079 22.1167 388.969 22.638C390.962 23.8647 391.959 25.582 391.959 27.79Z" fill="black"/>
</svg>
