<svg width="20" height="19" viewBox="0 0 20 19" fill="none" xmlns="http://www.w3.org/2000/svg">
<g id="mdi:information-variant-circle-outline">
<path id="Vector" d="M10.21 5.51159C10.35 5.37771 10.518 5.2959 10.7 5.2959C10.889 5.2959 11.05 5.37771 11.197 5.51159C11.33 5.66777 11.4 5.84627 11.4 6.03965C11.4 6.24046 11.33 6.41152 11.197 6.56771C11.05 6.70902 10.889 6.7834 10.7 6.7834C10.518 6.7834 10.35 6.70902 10.21 6.56771C10.077 6.41152 10 6.24046 10 6.03965C10 5.84627 10.077 5.66777 10.21 5.51159ZM8.46 8.99234C8.46 8.99234 9.979 7.71309 10.532 7.66102C11.05 7.6164 10.945 8.24859 10.896 8.57584L10.889 8.62046C10.791 9.01465 10.672 9.49065 10.553 9.94434C10.287 10.9781 10.028 11.9896 10.091 12.1756C10.161 12.4285 10.595 12.1086 10.91 11.8855C10.952 11.8558 10.987 11.826 11.022 11.8037C11.022 11.8037 11.078 11.7442 11.134 11.826C11.148 11.8483 11.162 11.8706 11.176 11.8855C11.239 11.9896 11.274 12.0268 11.19 12.0863L11.162 12.1012C11.008 12.2128 10.35 12.7036 10.084 12.8821C9.797 13.083 8.698 13.7523 8.866 12.4508C9.013 11.536 9.209 10.7476 9.363 10.1303C9.65 9.01465 9.776 8.5089 9.132 8.94771C8.873 9.11134 8.719 9.21546 8.628 9.2824C8.551 9.3419 8.544 9.3419 8.495 9.24521L8.474 9.20059L8.439 9.14109C8.39 9.06671 8.39 9.05927 8.46 8.99234ZM17 9.01465C17 13.1053 13.85 16.4521 10 16.4521C6.15 16.4521 3 13.1053 3 9.01465C3 4.92402 6.15 1.57715 10 1.57715C13.85 1.57715 17 4.92402 17 9.01465ZM16.3 9.01465C16.3 5.2959 13.7924 2.3209 10 2.3209C6.20761 2.3209 3.7 5.14715 3.7 9.01465C3.7 12.8821 6.62795 15.7084 10 15.7084C13.5777 15.7084 16.3 12.7334 16.3 9.01465Z" fill="white"/>
</g>
</svg>
